# xmcd CD database file
#
# Track frame offsets:
#	150
#	17918
#	44191
#	56740
#	82296
#	112964
#	127341
#	147239
#	167554
#	186155
#	208602
#	232450
#	250252
#	269723
#	284208
#	304586
#
# Disc length: 4278 seconds
#
# Revision: 1
# Processed by: cddbd v1.5.2PL0 Copyright (c) Steve Scherf et al.
# Submitted via: CDex 1.70beta2
#
DISCID=0d10b410
DTITLE=Santo Rico Compilation - Mambo Rico #3
DYEAR=1900
DGENRE=Salsa
TTITLE0=Que Problema
TTITLE1=El Puente Mundial
TTITLE2=La Palomilla
TTITLE3=Usted
TTITLE4=Mambo Congo Pal Monte
TTITLE5=Negro Bembon
TTITLE6=Dulce Con Dulce
TTITLE7=Me Gusto El Son
TTITLE8=Bomba Carabomba
TTITLE9=Dale Duro
TTITLE10=Solo Se Que Tiene Nombre De Mujer
TTITLE11=Mujer De Arena
TTITLE12=Ojos Chinos
TTITLE13=Clave Mambo
TTITLE14=Con Su Permiso
TTITLE15=Toma Jabon Pa Que Lave
EXTD=
EXTT0=
EXTT1=
EXTT2=
EXTT3=
EXTT4=
EXTT5=
EXTT6=
EXTT7=
EXTT8=
EXTT9=
EXTT10=
EXTT11=
EXTT12=
EXTT13=
EXTT14=
EXTT15=
PLAYORDER=
